<?xml version="1.0" encoding="UTF-8"?>
<svg version="1.1" xmlns="http://www.w3.org/2000/svg" width="400" height="300">
<path d="M0 0 C19.66566605 15.5609572 31.50893241 36.45645681 34.59375 61.265625 C36.91504374 84.5736974 29.55564039 107.6120926 14.80078125 125.6953125 C12.60078221 128.20630617 10.34019324 130.61945861 8 133 C7.31421875 133.69867188 6.6284375 134.39734375 5.921875 135.1171875 C-11.8556779 152.03878415 -35.25057958 157.90696327 -59.1328125 157.3515625 C-83.45858756 156.26258255 -103.91087967 143.81287651 -120.28125 126.6015625 C-136.58812091 107.64158958 -141.7467499 84.54172076 -140.27783203 60.07080078 C-138.20094492 37.11554062 -126.03743896 17.36631666 -108.94921875 2.3515625 C-76.73438716 -23.33496547 -33.32683395 -23.63833337 0 0 Z " fill="#FE1313" transform="translate(253,53)"/>
<path d="M0 0 C12.63524437 7.84916696 19.2371112 19.95335422 23 34 C30.34857453 66.34928048 30.34857453 66.34928048 25 75.375 C20.82489806 77.63651355 18.71962885 77.67423269 14 77 C11.75 74.9375 11.75 74.9375 10 73 C6.67310009 73.36420799 4.58379688 74.85869202 1.9375 76.8125 C-8.96077753 84.11909963 -20.1128212 85.59531259 -33 84 C-45.40440174 80.84520086 -55.95284919 72.35654843 -62.54296875 61.4453125 C-68.40537073 50.13311161 -70.1960509 38.12256883 -66.4375 25.75 C-61.48323527 12.83414494 -53.92029452 4.01253491 -41.4921875 -1.95703125 C-28.1487113 -7.5412133 -12.82964269 -6.67466221 0 0 Z " fill="#FFCBCB" transform="translate(216,74)"/>
<path d="M0 0 C6.12242672 3.52412855 11.71377493 9.07566965 14.1875 15.83203125 C15.99599644 24.79377699 15.48248174 34.12705908 10.625 42 C6.34226657 47.54291826 1.65528513 51.78503462 -5.375 53 C-15.51126516 54.01619917 -22.21596628 52.37321436 -30.625 46.875 C-37.09446874 40.1114645 -39.76490116 31.93474839 -39.65625 22.7265625 C-39.0213489 16.57154908 -36.36380985 9.9392788 -32.09375 5.3828125 C-22.637663 -2.22503931 -11.34670653 -5.03725002 0 0 Z " fill="#FF0505" transform="translate(204.375,88)"/>
<path d="M0 0 C4.97093824 0.41153737 9.44508386 0.79600832 14 3 C14 3.66 14 4.32 14 5 C14.59683594 5.07347656 15.19367188 5.14695312 15.80859375 5.22265625 C18.80647522 6.28607588 19.4708251 7.71679703 21.0625 10.4375 C21.54847656 11.24058594 22.03445312 12.04367188 22.53515625 12.87109375 C24.52511521 17.12164609 25.73653892 21.48858183 27 26 C27.24226318 26.834104 27.48452637 27.66820801 27.73413086 28.52758789 C32.98484812 46.65861458 38.11581507 65.63783191 38.25 84.625 C38.270625 85.36234375 38.29125 86.0996875 38.3125 86.859375 C38.34537487 91.44541967 37.87721462 94.38331433 35 98 C31.48175489 100.34549674 30.14224306 100.57991403 26 100 C22.06615825 96.76550789 20.26891549 94.44102837 19.70629883 89.33398438 C19.62404053 88.26470703 19.54178223 87.19542969 19.45703125 86.09375 C17.26860569 59.90617434 13.58847403 32.41227026 0.88574219 8.94116211 C-0.45983095 5.9922503 -0.12265807 3.18910992 0 0 Z " fill="#FFF5F5" transform="translate(232,48)"/>
<path d="M0 0 C2.5 0.125 2.5 0.125 3.5 1.125 C3.6584265 3.1958472 3.75124422 5.27178029 3.81640625 7.34765625 C3.85830078 8.60771484 3.90019531 9.86777344 3.94335938 11.16601562 C3.98317596 12.50650736 4.02288814 13.8470022 4.0625 15.1875 C4.10568042 16.53191523 4.14929456 17.8763166 4.19335938 19.22070312 C4.29985358 22.5220234 4.4018646 25.82342236 4.5 29.125 C5.33144531 28.14917969 6.16289062 27.17335937 7.01953125 26.16796875 C8.11712155 24.88275618 9.21478145 23.59760303 10.3125 22.3125 C10.85970703 21.66990234 11.40691406 21.02730469 11.97070312 20.36523438 C12.50244141 19.74326172 13.03417969 19.12128906 13.58203125 18.48046875 C14.06905518 17.90965576 14.5560791 17.33884277 15.05786133 16.75073242 C15.53376709 16.21424072 16.00967285 15.67774902 16.5 15.125 C16.99975342 14.55434814 17.49950684 13.98369629 18.0144043 13.39575195 C18.50465088 12.97640381 18.99489746 12.55705566 19.5 12.125 C22.1875 12.4375 22.1875 12.4375 24.5 13.125 C24.42040897 16.38823239 24.07570302 18.49511317 21.83984375 20.94140625 C20.55153451 22.12726545 19.23793467 23.28634354 17.8984375 24.4140625 C16.27709914 26.01464342 16.27709914 26.01464342 16.56640625 28.12109375 C17.69716804 30.54821007 19.05233275 31.80411128 21.0625 33.5625 C24.44670028 36.76713047 24.44670028 36.76713047 24.9375 40.0625 C24.7209375 41.0834375 24.7209375 41.0834375 24.5 42.125 C22.75390625 42.83203125 22.75390625 42.83203125 20.5 43.125 C18.46484375 41.76171875 18.46484375 41.76171875 16.4375 39.8125 C14.15580052 37.65342545 12.12958605 35.87805737 9.5 34.125 C5.54 38.58 5.54 38.58 1.5 43.125 C-2.5 42.125 -2.5 42.125 -3.5 41.125 C-3.60110353 38.1796443 -3.63969279 35.2582244 -3.6328125 32.3125 C-3.63376923 31.42844482 -3.63472595 30.54438965 -3.63571167 29.63354492 C-3.63639351 27.76057871 -3.63453893 25.88761014 -3.63037109 24.01464844 C-3.62502289 21.13731612 -3.63031593 18.26013992 -3.63671875 15.3828125 C-3.63605797 13.56770799 -3.63477681 11.75260357 -3.6328125 9.9375 C-3.63483673 9.07084717 -3.63686096 8.20419434 -3.63894653 7.3112793 C-3.61076285 0.18053814 -3.61076285 0.18053814 0 0 Z " fill="#FE0000" transform="translate(248.5,224.875)"/>
<path d="M0 0 C1.2065625 0.0309375 1.2065625 0.0309375 2.4375 0.0625 C3.77856405 2.7446281 3.65200419 4.94648032 3.75390625 7.9453125 C3.81674805 9.69521484 3.81674805 9.69521484 3.88085938 11.48046875 C3.92017578 12.70378906 3.95949219 13.92710937 4 15.1875 C4.04318359 16.41855469 4.08636719 17.64960938 4.13085938 18.91796875 C4.23718704 21.96602853 4.33921781 25.0141719 4.4375 28.0625 C6.21061263 26.14789961 7.98103362 24.23092507 9.75 22.3125 C10.24951172 21.77367187 10.74902344 21.23484375 11.26367188 20.6796875 C13.35616361 18.40704747 15.33279085 16.20986843 17.125 13.6875 C17.558125 13.15125 17.99125 12.615 18.4375 12.0625 C21.125 11.8125 21.125 11.8125 23.4375 12.0625 C24.21484375 13.703125 24.21484375 13.703125 24.4375 16.0625 C22.56640625 18.859375 22.56640625 18.859375 20 21.8125 C19.15566406 22.79734375 18.31132812 23.7821875 17.44140625 24.796875 C16.78011719 25.54453125 16.11882812 26.2921875 15.4375 27.0625 C16.82511278 30.23322872 17.64890864 31.23076402 20.5 33.5 C23.4375 36.0625 23.4375 36.0625 24.4375 38.75 C24.4375 39.513125 24.4375 40.27625 24.4375 41.0625 C23.7775 41.7225 23.1175 42.3825 22.4375 43.0625 C18.58697394 42.81173045 16.75548433 40.69638355 14.1875 38 C13.12789062 36.89978516 13.12789062 36.89978516 12.046875 35.77734375 C11.51578125 35.21144531 10.9846875 34.64554687 10.4375 34.0625 C9.695 34.805 8.9525 35.5475 8.1875 36.3125 C7.28 37.22 6.3725 38.1275 5.4375 39.0625 C4.756875 39.825625 4.07625 40.58875 3.375 41.375 C1.4375 43.0625 1.4375 43.0625 -2.5625 43.0625 C-4.54029554 38.16705739 -4.77477333 33.83602055 -4.57421875 28.63671875 C-4.55156448 27.84852249 -4.52891022 27.06032623 -4.50556946 26.24824524 C-4.45585779 24.59331351 -4.40093521 22.9385309 -4.34106445 21.28393555 C-4.24967501 18.74095686 -4.17529401 16.19789745 -4.10351562 13.65429688 C-4.05307224 12.04423955 -4.00167409 10.43421178 -3.94921875 8.82421875 C-3.92623215 8.06074631 -3.90324554 7.29727386 -3.87956238 6.51066589 C-3.63780883 0.08872704 -3.63780883 0.08872704 0 0 Z " fill="#FE0000" transform="translate(133.5625,224.9375)"/>
<path d="M0 0 C4.88478796 2.35193495 7.36061943 5.30776787 10 10 C11.23932119 13.6445827 11.16739359 17.23826073 11.1875 21.0625 C11.20167969 22.29097656 11.21585938 23.51945312 11.23046875 24.78515625 C11 28 11 28 9 31 C8.236875 30.835 7.47375 30.67 6.6875 30.5 C3.29547826 29.86892619 1.29456698 29.90181101 -2 31 C-7.81206132 31.55885205 -11.50479605 30.58054707 -16 27 C-20.01701546 22.45442988 -21.25759724 17.96766944 -21 12 C-19.27222852 6.71505194 -16.32853311 4.22337572 -12 1 C-8.285392 -0.857304 -4.05406882 -0.44282906 0 0 Z M-11.4375 8.625 C-13.37231132 11.5659132 -13.92809193 13.47650456 -14 17 C-12.39588152 20.52906067 -11.25840638 21.82772908 -8 24 C-4.00199836 24.60839155 -2.47798748 24.33251303 0.875 22 C3.81148802 17.85436985 3.7152453 16.00671711 3 11 C1.66666667 8.33333333 1.66666667 8.33333333 -1 7 C-5.05193677 6.20289769 -7.96828847 6.31219231 -11.4375 8.625 Z " fill="#FE0000" transform="translate(114,237)"/>
<path d="M0 0 C4.60047527 1.84019011 7.08679362 5.11572483 10 9 C11.2879632 12.8638896 11.18415915 16.53677722 11.1875 20.5625 C11.19974609 21.34302734 11.21199219 22.12355469 11.22460938 22.92773438 C11.22985217 24.95320035 11.12234328 26.97822552 11 29 C10.34 29.66 9.68 30.32 9 31 C6.73725212 30.64644564 5.04911148 30.02455574 3 29 C2.443125 29.309375 1.88625 29.61875 1.3125 29.9375 C-2.54639311 31.71050494 -6.04657719 31.60976002 -10.08984375 30.34765625 C-14.42274074 28.46764694 -17.30239705 26.3610954 -19.375 22.05859375 C-21.03211198 16.60048116 -20.84118875 11.74708433 -18.375 6.625 C-12.78941896 0.45146306 -8.13519584 -1.10562225 0 0 Z M-10.9375 8.5 C-13.29743405 11.36052612 -13.73357225 13.32399572 -13.484375 17.02734375 C-12.62907801 20.51060972 -10.87459336 22.00028288 -8 24 C-4.2007634 24.71235686 -2.56275179 24.31263988 0.8125 22.4375 C3.67800813 19.24450523 4 17.25880812 4 13 C2.65437601 10.05244268 1.91445456 8.45722728 -1 7 C-4.97008503 6.62546368 -7.3586894 6.67252225 -10.9375 8.5 Z " fill="#FE0000" transform="translate(229,237)"/>
<path d="M0 0 C1.65 0.33 3.3 0.66 5 1 C6.34276287 5.34055904 5.98190508 9.53252341 5.83984375 14.02734375 C6.0058274 17.10816231 6.69669168 19.22471994 8 22 C13.28199593 23.19988045 13.28199593 23.19988045 18 21 C19.51583025 16.45250925 19.39556349 11.74222753 19.60546875 6.984375 C19.89860703 1.10139297 19.89860703 1.10139297 21 0 C22.66617115 -0.04063832 24.33388095 -0.042721 26 0 C28.80201429 5.60402858 27.77019953 15.71969238 26.3515625 21.76171875 C24.11741839 26.77422157 21.02203384 28.95713877 16 31 C10.57223011 31.88818053 7.34686523 30.48003794 2.796875 27.77734375 C-0.83554102 24.18441052 -2.12630022 19.8967081 -2.36328125 14.921875 C-2.36197418 13.5311476 -2.34492421 12.14034999 -2.3125 10.75 C-2.31572266 10.04359375 -2.31894531 9.3371875 -2.32226562 8.609375 C-2.28340149 4.87841778 -2.11696073 3.17544109 0 0 Z " fill="#FE0000" transform="translate(280,237)"/>
<path d="M0 0 C1.66611905 -0.042721 3.33382885 -0.04063832 5 0 C7.30210473 2.30210473 6.30288565 8.99656207 6.34179688 12.29882812 C6.51326367 17.26004115 6.51326367 17.26004115 8.8125 21.58203125 C11.08178052 23.34920476 11.08178052 23.34920476 14.6875 22.875 C15.780625 22.58625 16.87375 22.2975 18 22 C19.11899852 19.76200295 19.16477307 18.42147726 19.24609375 15.9375 C19.27896484 15.14085937 19.31183594 14.34421875 19.34570312 13.5234375 C19.40689604 11.84128322 19.46418863 10.15898253 19.51757812 8.4765625 C19.55173828 7.67992187 19.58589844 6.88328125 19.62109375 6.0625 C19.6461499 5.33160156 19.67120605 4.60070312 19.69702148 3.84765625 C20 2 20 2 22 0 C24.625 0.375 24.625 0.375 27 1 C28.40072221 9.40433329 29.02433047 17.20378784 25 25 C21.81252415 28.57847289 18.56613936 30.87952774 13.75 31.25 C8.39181639 30.89278776 5.33238209 29.44041307 1.6875 25.5 C-0.53572249 22.20633705 -1.12677365 19.72498298 -1.1328125 15.83984375 C-1.13410156 15.04642578 -1.13539063 14.25300781 -1.13671875 13.43554688 C-1.13285156 12.61119141 -1.12898437 11.78683594 -1.125 10.9375 C-1.12886719 10.10927734 -1.13273438 9.28105469 -1.13671875 8.42773438 C-1.13542969 7.63560547 -1.13414062 6.84347656 -1.1328125 6.02734375 C-1.13168457 5.30281006 -1.13055664 4.57827637 -1.12939453 3.83178711 C-1 2 -1 2 0 0 Z " fill="#FE0000" transform="translate(164,237)"/>
<path d="M0 0 C2.4375 0.375 2.4375 0.375 5 1 C6.59919459 4.19838918 6.16301759 7.67053358 6.16796875 11.18359375 C6.17129715 11.9949025 6.17462555 12.80621124 6.17805481 13.6421051 C6.1831213 15.35946078 6.18546322 17.07682631 6.18530273 18.79418945 C6.18748837 21.42350464 6.20564436 24.05239976 6.22460938 26.68164062 C6.2275435 28.3489569 6.22952817 30.01627516 6.23046875 31.68359375 C6.23765427 32.47116562 6.24483978 33.25873749 6.25224304 34.07017517 C6.23613717 37.9130469 6.18266282 39.72600577 4 43 C1.5625 42.625 1.5625 42.625 -1 42 C-2.59919459 38.80161082 -2.16301759 35.32946642 -2.16796875 31.81640625 C-2.17129715 31.0050975 -2.17462555 30.19378876 -2.17805481 29.3578949 C-2.1831213 27.64053922 -2.18546322 25.92317369 -2.18530273 24.20581055 C-2.18748837 21.57649536 -2.20564436 18.94760024 -2.22460938 16.31835938 C-2.2275435 14.6510431 -2.22952817 12.98372484 -2.23046875 11.31640625 C-2.24124702 10.13504845 -2.24124702 10.13504845 -2.25224304 8.92982483 C-2.23613717 5.0869531 -2.18266282 3.27399423 0 0 Z " fill="#FE0000" transform="translate(198,225)"/>
</svg>
